<?xml version="1.0" standalone="no"?>
<!DOCTYPE svg PUBLIC "-//W3C//DTD SVG 20010904//EN"
 "http://www.w3.org/TR/2001/REC-SVG-20010904/DTD/svg10.dtd">
<svg version="1.0" xmlns="http://www.w3.org/2000/svg"
 width="1122.000000pt" height="1280.000000pt" viewBox="0 0 1122.000000 1280.000000"
 preserveAspectRatio="xMidYMid meet">
<metadata>
Created by potrace 1.15, written by Peter Selinger 2001-2017
</metadata>
<g transform="translate(0.000000,1280.000000) scale(0.100000,-0.100000)"
fill="#000000" stroke="none">
<path d="M5351 12697 l-244 -102 2 -707 c1 -390 -1 -708 -4 -708 -4 0 -209
144 -455 319 l-448 319 -268 -84 c-147 -46 -269 -85 -270 -87 -1 -1 26 -151
60 -334 l61 -332 663 -423 662 -422 0 -284 c0 -224 -3 -282 -12 -276 -7 4
-118 77 -246 161 l-234 153 -217 -169 -217 -169 -38 -263 c-21 -145 -41 -267
-45 -270 -3 -4 -118 38 -256 93 l-249 99 -231 -92 c-126 -51 -241 -98 -255
-105 l-25 -12 16 -289 c10 -158 16 -289 15 -290 -1 -1 -110 60 -242 136 -224
130 -239 141 -246 172 -4 19 -21 372 -38 784 l-31 750 -40 37 c-22 20 -139
120 -259 223 l-220 186 -208 -191 c-196 -180 -208 -193 -205 -223 28 -271 100
-1063 98 -1066 -2 -1 -277 155 -611 348 -334 194 -612 350 -619 347 -6 -2
-106 -76 -221 -164 l-210 -161 -34 -270 c-18 -149 -32 -272 -29 -274 2 -2 277
-161 611 -353 334 -192 608 -352 608 -356 0 -5 -4 -8 -9 -8 -15 0 -975 -441
-988 -453 -6 -7 -38 -133 -71 -280 l-59 -269 26 -10 c14 -5 158 -57 319 -114
l294 -105 695 362 c532 277 699 359 713 353 44 -22 470 -270 470 -274 0 -3
-117 -64 -259 -135 -247 -123 -259 -130 -255 -155 2 -14 18 -124 34 -245 17
-121 33 -233 36 -248 5 -23 50 -64 215 -195 115 -91 209 -168 209 -172 0 -4
-94 -81 -209 -172 -165 -131 -210 -172 -215 -195 -3 -15 -19 -127 -36 -248
-16 -121 -32 -231 -34 -245 -4 -25 8 -32 255 -155 142 -71 259 -132 259 -135
-1 -4 -425 -252 -470 -274 -14 -6 -186 79 -713 353 l-695 362 -294 -105 c-161
-57 -305 -109 -319 -114 l-26 -10 59 -269 c33 -147 65 -273 71 -280 13 -12
973 -453 988 -453 5 0 9 -3 9 -7 0 -5 -274 -165 -608 -357 -334 -192 -609
-351 -611 -353 -3 -2 11 -125 29 -274 l34 -270 210 -161 c115 -88 215 -162
221 -164 7 -3 285 153 619 347 334 193 609 350 611 348 2 -3 -69 -785 -98
-1066 -3 -30 9 -43 205 -223 l208 -191 220 186 c120 103 237 203 259 223 l40
37 31 750 c17 413 34 765 38 784 7 31 22 42 246 172 132 76 241 137 242 136 1
-1 -5 -132 -15 -290 l-16 -289 25 -12 c14 -7 129 -54 255 -105 l231 -92 249
99 c138 55 253 97 256 93 4 -3 24 -125 45 -270 l38 -263 217 -169 217 -169
234 153 c128 84 239 157 246 161 9 6 12 -52 12 -276 l0 -284 -662 -422 -663
-423 -61 -332 c-34 -183 -61 -333 -60 -334 1 -2 123 -41 270 -87 l268 -84 448
319 c246 175 451 319 455 319 3 0 5 -318 4 -707 l-2 -708 244 -102 c134 -56
251 -102 259 -102 8 0 125 46 259 102 l244 102 -2 708 c-1 389 1 707 4 707 4
0 209 -144 455 -319 l448 -319 268 84 c147 46 269 85 270 87 1 1 -26 151 -60
334 l-61 332 -663 423 -662 422 0 284 c0 224 3 282 13 276 6 -4 117 -77 245
-161 l234 -153 217 169 217 169 38 263 c21 145 41 267 45 270 3 4 118 -38 256
-93 l249 -99 231 92 c126 51 241 98 255 105 l25 12 -16 289 c-10 158 -16 289
-15 290 1 1 110 -60 242 -136 224 -130 239 -141 246 -172 4 -19 21 -371 38
-784 l31 -750 40 -37 c22 -20 139 -120 259 -223 l220 -186 208 191 c196 180
208 193 205 223 -29 281 -100 1063 -98 1066 2 2 277 -155 611 -348 334 -194
612 -350 619 -347 6 2 106 76 221 164 l210 161 34 270 c18 149 32 272 29 274
-2 2 -277 161 -611 353 -334 192 -608 352 -608 357 0 4 4 7 9 7 15 0 975 441
988 453 6 7 38 133 71 280 l59 269 -26 10 c-14 5 -158 57 -319 114 l-294 105
-695 -362 c-527 -274 -699 -359 -713 -353 -45 22 -469 270 -470 274 0 3 117
64 259 135 247 123 259 130 255 155 -2 14 -18 124 -34 245 -17 121 -33 233
-36 248 -5 23 -50 64 -215 195 -115 91 -209 168 -209 172 0 4 94 81 209 172
165 131 210 172 215 195 3 15 19 127 36 248 16 121 32 231 34 245 4 25 -8 32
-255 155 -142 71 -259 132 -259 135 0 4 426 252 470 274 14 6 181 -76 713
-353 l695 -362 294 105 c161 57 305 109 319 114 l26 10 -59 269 c-33 147 -65
273 -71 280 -13 12 -973 453 -988 453 -5 0 -9 3 -9 8 0 4 274 164 608 356 334
192 609 351 611 353 3 2 -11 125 -29 274 l-34 270 -210 161 c-115 88 -215 162
-221 164 -7 3 -285 -153 -619 -347 -334 -193 -609 -349 -611 -348 -2 3 70 795
98 1066 3 30 -9 43 -205 223 l-208 191 -220 -186 c-120 -103 -237 -203 -259
-223 l-40 -37 -31 -750 c-17 -412 -34 -765 -38 -784 -7 -31 -22 -42 -246 -172
-132 -76 -241 -137 -242 -136 -1 1 5 132 15 290 l16 289 -25 12 c-14 7 -129
54 -255 105 l-231 92 -249 -99 c-138 -55 -253 -97 -256 -93 -4 3 -24 125 -45
270 l-38 263 -217 169 -217 169 -234 -153 c-128 -84 -239 -157 -245 -161 -10
-6 -13 52 -13 276 l0 284 662 422 663 423 61 332 c34 183 61 333 60 334 -1 2
-123 41 -270 87 l-268 84 -448 -319 c-246 -175 -451 -319 -455 -319 -3 0 -5
318 -4 708 l2 707 -244 102 c-134 56 -251 102 -259 102 -8 0 -125 -46 -259
-102z m461 -103 l188 -78 2 -781 3 -781 517 367 516 368 187 -58 c103 -33 189
-62 192 -65 5 -4 -64 -407 -84 -493 -4 -16 -181 -134 -669 -445 l-663 -423 -3
-423 c-2 -232 0 -422 4 -422 4 0 139 87 301 193 l293 194 165 -128 c90 -70
165 -135 167 -143 16 -77 58 -392 53 -397 -3 -4 -150 -62 -326 -129 -176 -67
-355 -136 -398 -152 -44 -17 -75 -34 -70 -38 9 -9 1187 -689 1189 -687 1 1
-30 195 -68 431 -37 236 -67 429 -66 430 2 1 89 36 193 77 l191 75 189 -77
190 -77 3 -44 c1 -23 -6 -185 -17 -358 -10 -173 -18 -316 -17 -317 1 -2 727
415 732 421 1 0 16 334 33 741 17 407 34 764 37 792 l5 53 195 165 c107 92
199 165 204 163 5 -2 72 -61 149 -132 132 -121 141 -131 141 -165 -1 -20 -27
-306 -59 -636 -32 -330 -56 -602 -55 -604 2 -2 9 1 16 6 45 36 1334 773 1345
769 7 -3 84 -60 171 -126 l158 -121 23 -187 c13 -103 25 -196 28 -208 4 -19
-73 -66 -671 -410 -372 -214 -676 -391 -676 -394 0 -3 255 -122 568 -264 312
-143 572 -264 578 -270 11 -11 97 -386 90 -393 -5 -6 -476 -173 -487 -173 -6
0 -324 163 -708 363 l-698 363 -344 -198 c-189 -110 -355 -205 -369 -212 -23
-13 -9 -21 298 -175 177 -89 322 -163 322 -166 0 -13 -51 -372 -55 -392 -3
-14 -66 -71 -163 -148 -86 -68 -160 -125 -164 -125 -3 0 -156 122 -340 271
l-333 271 -3 -346 c-1 -190 -1 -502 0 -692 l3 -346 333 271 c184 149 337 271
340 271 4 0 78 -57 164 -125 97 -77 160 -134 163 -148 4 -20 55 -379 55 -392
0 -3 -145 -77 -322 -166 -276 -138 -319 -163 -302 -172 10 -6 174 -100 363
-209 189 -109 348 -198 354 -198 6 0 323 162 703 360 381 198 697 360 703 360
11 0 482 -167 487 -173 7 -7 -79 -382 -90 -393 -6 -6 -266 -127 -578 -270
-313 -142 -568 -261 -568 -264 0 -3 304 -180 676 -394 598 -344 675 -391 671
-410 -3 -12 -15 -105 -28 -208 l-23 -187 -158 -121 c-87 -66 -164 -123 -171
-126 -8 -3 -317 171 -687 386 -370 214 -674 389 -675 387 -1 -1 24 -272 56
-602 32 -330 58 -616 59 -636 0 -34 -9 -44 -141 -165 -78 -71 -145 -130 -150
-132 -4 -2 -96 71 -203 163 l-195 165 -5 53 c-3 28 -20 385 -37 792 -17 407
-32 741 -33 741 -5 6 -731 423 -732 421 -1 -1 7 -144 17 -317 11 -173 18 -335
17 -358 l-3 -44 -190 -77 -189 -77 -191 75 c-104 41 -191 76 -193 77 -1 1 29
194 66 430 38 236 69 430 68 431 -2 2 -1180 -678 -1189 -687 -5 -4 26 -21 70
-38 43 -16 222 -85 398 -152 176 -67 323 -125 326 -129 5 -5 -37 -320 -53
-397 -2 -8 -77 -73 -167 -143 l-165 -128 -293 194 c-162 106 -297 193 -301
193 -4 0 -6 -190 -4 -422 l3 -423 663 -423 c488 -311 665 -429 669 -445 20
-86 89 -489 84 -493 -3 -3 -89 -32 -192 -65 l-187 -58 -516 368 -517 367 -3
-781 -2 -781 -195 -81 -195 -82 -195 82 -195 81 -2 781 -3 781 -517 -367 -516
-368 -187 58 c-103 33 -189 62 -192 65 -5 4 64 407 84 493 4 16 181 134 669
445 l663 423 3 423 c2 232 0 422 -4 422 -4 0 -139 -87 -301 -193 l-293 -194
-165 128 c-90 70 -165 135 -167 143 -16 77 -58 392 -53 397 3 4 150 62 326
129 176 67 355 136 398 152 44 17 75 34 70 38 -9 9 -1187 689 -1189 687 -1 -1
30 -195 68 -431 37 -236 67 -429 66 -430 -2 -1 -89 -36 -193 -77 l-191 -75
-189 77 -190 77 -3 44 c-1 23 6 185 17 358 10 173 18 316 17 317 -1 2 -727
-415 -732 -421 -1 0 -16 -334 -33 -741 -17 -407 -34 -764 -37 -792 l-5 -53
-195 -165 c-107 -92 -199 -165 -203 -163 -5 2 -72 61 -150 132 -132 121 -141
131 -141 165 1 20 27 306 59 636 32 330 57 601 56 602 -1 2 -305 -173 -675
-387 -370 -215 -679 -389 -687 -386 -7 3 -84 60 -171 126 l-158 121 -23 187
c-13 103 -25 196 -28 208 -4 19 73 66 671 410 372 214 676 391 676 394 0 3
-255 122 -567 264 -313 143 -573 264 -579 270 -11 11 -97 386 -90 393 5 6 476
173 487 173 6 0 322 -162 703 -360 380 -198 697 -360 703 -360 6 0 165 89 354
198 189 109 353 203 363 209 17 9 -26 34 -302 172 -177 89 -322 163 -322 166
0 13 51 372 55 392 3 14 66 71 163 148 86 68 160 125 164 125 3 0 156 -122
340 -271 l333 -271 3 346 c1 190 1 502 0 692 l-3 346 -333 -271 c-184 -149
-337 -271 -340 -271 -4 0 -78 57 -164 125 -97 77 -160 134 -163 148 -4 20 -55
379 -55 392 0 3 145 77 322 166 307 154 321 162 298 175 -14 7 -180 102 -369
212 l-344 198 -698 -363 c-384 -200 -702 -363 -708 -363 -11 0 -482 167 -487
173 -7 7 79 382 90 393 6 6 266 127 579 270 312 142 567 261 567 264 0 3 -304
180 -676 394 -598 344 -675 391 -671 410 3 12 15 105 28 208 l23 187 158 121
c87 66 164 123 171 126 11 4 1300 -733 1345 -769 7 -5 14 -8 16 -6 1 2 -23
274 -55 604 -32 330 -58 616 -59 636 0 34 9 44 141 165 77 71 144 130 149 132
5 2 97 -71 204 -163 l195 -165 5 -53 c3 -28 20 -385 37 -792 17 -407 32 -741
33 -741 5 -6 731 -423 732 -421 1 1 -7 144 -17 317 -11 173 -18 335 -17 358
l3 44 190 77 189 77 191 -75 c104 -41 191 -76 193 -77 1 -1 -29 -194 -66 -430
-38 -236 -69 -430 -68 -431 2 -2 1180 678 1189 687 5 4 -26 21 -70 38 -43 16
-222 85 -398 152 -176 67 -323 125 -326 129 -5 5 37 320 53 397 2 8 77 73 167
143 l165 128 293 -194 c162 -106 297 -193 301 -193 4 0 6 190 4 422 l-3 423
-663 423 c-488 311 -665 429 -669 445 -20 86 -89 489 -84 493 3 3 89 32 192
65 l187 58 516 -368 517 -367 3 781 2 781 193 81 c105 45 197 80 202 78 6 -1
94 -38 197 -81z m-1357 -3726 c160 -60 296 -113 304 -118 10 -5 -6 -19 -55
-48 -380 -221 -698 -402 -701 -398 -4 4 91 618 104 673 4 19 8 21 31 12 15 -6
158 -60 317 -121z m2715 -236 c28 -178 50 -326 47 -328 -4 -4 -744 419 -760
436 -5 4 22 19 60 34 37 14 185 70 328 125 251 95 260 98 267 77 4 -11 30
-167 58 -344z m-4010 -2232 l0 -449 -168 137 c-92 75 -216 175 -274 222 -59
47 -107 87 -107 90 0 3 103 88 229 189 126 102 249 202 272 222 24 21 44 38
46 39 1 0 2 -202 2 -450z m5342 90 c59 -47 107 -87 107 -90 0 -3 -48 -43 -107
-90 -58 -47 -182 -147 -274 -222 l-168 -137 0 449 0 449 168 -137 c92 -75 216
-175 274 -222z m-4120 -2206 c205 -118 377 -219 381 -224 5 -4 -22 -19 -60
-34 -37 -14 -185 -70 -328 -125 -143 -54 -262 -97 -263 -96 -4 4 -111 661
-112 683 0 6 2 12 4 12 3 0 172 -97 378 -216z m2838 204 c-1 -22 -108 -679
-112 -683 -3 -3 -647 241 -655 249 -3 2 31 25 74 50 43 25 213 124 378 220
165 96 303 175 308 175 4 1 7 -5 7 -11z"/>
<path d="M4720 7946 l-885 -512 0 -1034 0 -1034 888 -513 887 -512 888 512
887 513 0 1034 0 1034 -885 512 c-487 282 -887 512 -890 512 -3 0 -403 -230
-890 -512z m1727 -104 l828 -478 0 -964 0 -963 -828 -478 c-456 -264 -832
-479 -837 -479 -5 0 -381 215 -837 479 l-828 478 0 963 0 964 825 477 c454
262 830 478 837 478 6 1 384 -214 840 -477z"/>
</g>
</svg>
